<svg id="Layer_1" data-name="Layer 1" xmlns="http://www.w3.org/2000/svg" viewBox="0 0 128 128"><circle cx="64" cy="64" r="64" fill="#ebc021"/><path d="M48.81,77.48a15.48,15.48,0,0,0,1.43,4H64.09v-4H64Z" fill="#faa61a"/><polygon points="48.5 69.07 48.5 73.03 63.99 73 64.09 73 64.09 69.07 48.5 69.07" fill="#faa61a"/><rect x="48.5" y="60.86" width="15.59" height="3.77" fill="#faa61a"/><path d="M48.81,48H64.09V35.7A15.09,15.09,0,0,0,48.81,48Z" fill="#faa61a"/><path d="M53.71,85.91a15.44,15.44,0,0,0,10.38,3.94V85.91Z" fill="#faa61a"/><path d="M48.5,56.41H64.09v-4l-15.59,0Z" fill="#faa61a"/><path d="M68.48,45a6.56,6.56,0,0,0-4.66-1.93,1.94,1.94,0,0,1,0-3.87,10.4,10.4,0,0,1,7.4,3.07A1.93,1.93,0,0,1,68.48,45Z" fill="#fff"/><path d="M93.41,48H83.68A20,20,0,0,0,75.5,34.87l6.27-6.27a2.22,2.22,0,0,0-3.15-3.14l-7.18,7.18A19.78,19.78,0,0,0,56,32.87l-7.42-7.41a2.22,2.22,0,0,0-3.15,3.14l6.61,6.6A19.88,19.88,0,0,0,44.32,48H34.59a14.74,14.74,0,0,0,0,29.48h9.72A19.87,19.87,0,0,0,61.78,94.16V101a2.22,2.22,0,0,0,4.44,0V94.13A19.74,19.74,0,0,0,83.68,77.49H93.4a14.74,14.74,0,0,0,0-29.48ZM44.05,73H34.59a10.29,10.29,0,1,1,0-20.58h9.45ZM79.18,48,48.81,48C52.19,31.6,75.77,31.59,79.18,48ZM53.71,85.91H74.29A15.41,15.41,0,0,1,53.71,85.91Zm24.05-4.45H50.24a15.48,15.48,0,0,1-1.43-4l15.18,0,15.19,0A15.46,15.46,0,0,1,77.76,81.46ZM79.5,73,64,73,48.5,73v-4h31Zm0-8.4h-31V60.86h31Zm0-8.22h-31V52.46l31,0ZM93.41,73.05H84V52.46H93.4a10.29,10.29,0,0,1,0,20.58Z" fill="#42210b"/></svg>